<svg xmlns="http://www.w3.org/2000/svg" version="1.1" xmlns:xlink="http://www.w3.org/1999/xlink" xmlns:svgjs="http://svgjs.dev/svgjs" width="500" height="500"><svg version="1.2" xmlns="http://www.w3.org/2000/svg" viewBox="0 0 256 256" width="500" height="500"><style>.a{fill:#9d0dfb}.b{fill:#f0f}.c{fill:#00f}</style><path class="a" d="m189.6 176h-33.1v-106.6h32.8q14.1 0 25.2 6.3 11.1 6.3 17.3 18 6.2 11.7 6.2 26.6v4.9q0 14.8-6.1 26.4-6.1 11.6-17.2 18-11.2 6.3-25.1 6.4zm-0.3-88.8h-10.8v71.1h10.6q12.9 0 19.7-8.4 6.8-8.4 7-24.1v-5.6q0-16.3-6.8-24.6-6.7-8.4-19.7-8.4z"></path><path class="b" d="m126.4 178.5v-7.8h5.3q3.8 0 5.6-1.8 1.8-1.9 1.8-5 0-3-1.8-4.7-1.8-1.7-5-1.7-2.8 0-4.7 1.6-1.9 1.5-1.9 4h-9.9q0-3.9 2.1-7 2.1-3.1 5.9-4.8 3.8-1.7 8.3-1.7 7.9 0 12.4 3.7 4.5 3.8 4.5 10.4 0 3.5-2.1 6.3-2.1 2.9-5.5 4.4 4.2 1.5 6.3 4.5 2 3.1 2 7.2 0 6.6-4.8 10.6-4.8 4-12.8 4-7.4 0-12.2-3.9-4.7-4-4.7-10.4h9.9q0 2.8 2.1 4.5 2.1 1.8 5.1 1.8 3.6 0 5.5-1.8 2.1-1.9 2.1-5 0-7.4-8.2-7.4z"></path><path class="c" d="m112.3 68.4v106.6h-22v-45.7h-42.8v45.7h-22v-106.6h22v43.2h42.8v-43.2z"></path></svg><style>@media (prefers-color-scheme: light) { :root { filter: none; } }
@media (prefers-color-scheme: dark) { :root { filter: none; } }
</style></svg>